Coordinates
version=1
nRows=9
nColumns=24
inDegrees=yes

Units are S.I. units (second, meters, Newtons, ...)
Angles are in degrees.

endheader
time	pelvis_tilt	pelvis_list	pelvis_rotation	pelvis_tx	pelvis_ty	pelvis_tz	hip_flexion_r	hip_adduction_r	hip_rotation_r	knee_angle_r	ankle_angle_r	subtalar_angle_r	mtp_angle_r	hip_flexion_l	hip_adduction_l	hip_rotation_l	knee_angle_l	ankle_angle_l	subtalar_angle_l	mtp_angle_l	lumbar_extension	lumbar_bending	lumbar_rotation
      6.68000000	     35.25961362	     -1.85870501	      0.38258762	      1.18523979	      0.65902516	     -0.29192317	    -51.07900771	      3.49300997	     -5.08096150	    -15.72430499	     20.27177015	     15.50958750	      0.00000000	    -14.93476462	      0.34174742	     -9.98984787	     -3.41838632	      3.57209164	     13.42235295	      0.00000000	    -62.65132034	      0.94666774	      3.04292196
      6.68500000	     35.41645474	     -1.66186534	      0.31413614	      1.19093808	      0.65888415	     -0.29206941	    -51.17877364	      3.16407182	     -5.22823169	    -16.87383380	     19.65809536	     15.76634887	      0.00000000	    -14.92147632	      0.56604607	     -9.45801034	     -4.56601111	      3.29296372	     13.04700682	      0.00000000	    -62.75537011	      0.64938412	      2.97637645
      6.69000000	     35.53378125	     -1.43490228	      0.26994331	      1.19677436	      0.65876991	     -0.29227123	    -51.21455899	      2.81665129	     -5.50954047	    -18.06146506	     18.91729980	     16.05845313	      0.00000000	    -14.83884368	      0.82888353	     -8.75254065	     -5.85974188	      3.13213359	     12.41630047	      0.00000000	    -62.78701405	      0.35556560	      2.86874689
      6.69500000	     35.67132325	     -1.25308571	      0.19742814	      1.20251020	      0.65875836	     -0.29249251	    -51.15396793	      2.46216154	     -5.76881159	    -19.42879413	     18.05613394	     16.35040066	      0.00000000	    -14.78873327	      1.06463789	     -8.16504528	     -7.17243247	      2.93913070	     11.81104565	      0.00000000	    -62.86907666	      0.08841983	      2.79490541
      6.70000000	     35.79445074	     -1.04815379	      0.16583341	      1.20825875	      0.65878654	     -0.29276380	    -51.01081976	      2.10935990	     -6.10414378	    -20.89923508	     17.06829174	     16.64061782	      0.00000000	    -14.71416431	      1.32796665	     -7.57226310	     -8.54266949	      2.81429443	     11.10483722	      0.00000000	    -62.93550631	     -0.16056682	      2.70565142
      6.70500000	     35.92134344	     -0.86689173	      0.12467234	      1.21400637	      0.65889100	     -0.29307834	    -50.79288514	      1.74315271	     -6.46818377	    -22.47639554	     15.90946001	     16.91574924	      0.00000000	    -14.66316122	      1.58364862	     -7.02137184	     -9.91521091	      2.75033357	     10.39531728	      0.00000000	    -63.00537891	     -0.38968427	      2.62021159
      6.71000000	     35.94985488	     -0.64214670	      0.18764254	      1.21983805	      0.65896188	     -0.29344909	    -50.42149108	      1.41259322	     -7.00195030	    -24.12522564	     14.61720685	     17.13981997	      0.00000000	    -14.48986682	      1.86231762	     -6.39228795	    -11.34968582	      2.85367162	      9.66424139	      0.00000000	    -62.95698142	     -0.55293662	      2.37034803
      6.71500000	     36.11402136	     -0.50066095	      0.11821275	      1.22554407	      0.65922216	     -0.29378398	    -50.08994630	      1.01347030	     -7.39091494	    -25.88185772	     13.14227420	     17.30397423	      0.00000000	    -14.53129888	      2.10144824	     -5.97174825	    -12.68430459	      2.93593223	      8.99648937	      0.00000000	    -63.07402281	     -0.76300706	      2.36847517
      6.72000000	     36.14549032	     -0.31773777	      0.16370616	      1.23135505	      0.65940551	     -0.29420845	    -49.56814978	      0.65691756	     -7.91084204	    -27.70720049	     11.55785282	     17.38015250	      0.00000000	    -14.42637488	      2.36387877	     -5.42740460	    -14.04287470	      3.22929021	      8.28703530	      0.00000000	    -63.02622438	     -0.89813959	      2.17688939
